<svg width="34" height="34" viewBox="0 0 34 34" fill="none" xmlns="http://www.w3.org/2000/svg">
<path d="M17 4.75C17.2305 4.75 17.4577 4.75765 17.6816 4.76953C17.0757 5.35965 16.5642 6.04758 16.1504 6.83301C15.5331 8.0047 15.2246 9.27122 15.2246 10.625C15.2246 12.8811 16.0202 14.8151 17.6025 16.3975C19.1849 17.9798 21.1189 18.7754 23.375 18.7754C24.7509 18.7754 26.025 18.4678 27.1875 17.8486C27.9638 17.4352 28.6431 16.9228 29.2295 16.3184C29.2414 16.5423 29.25 16.7694 29.25 17C29.25 20.4106 28.0621 23.2934 25.6777 25.6777C23.2934 28.0621 20.4106 29.25 17 29.25C13.5894 29.25 10.7066 28.0621 8.32227 25.6777C5.93793 23.2934 4.75 20.4106 4.75 17C4.75 13.5894 5.93793 10.7066 8.32227 8.32227C10.7066 5.93793 13.5894 4.75 17 4.75ZM13.0918 7.3291C11.1598 8.12171 9.58921 9.38782 8.38965 11.1191C7.18453 12.8585 6.58301 14.8241 6.58301 17C6.58301 19.8715 7.60388 22.3363 9.63379 24.3662C11.6637 26.3961 14.1285 27.417 17 27.417C19.1759 27.417 21.1415 26.8155 22.8809 25.6104C24.6122 24.4108 25.8783 22.8402 26.6709 20.9082L27.0459 19.9941L26.0869 20.2334C25.63 20.3476 25.1737 20.4394 24.7178 20.5078C24.2698 20.575 23.8221 20.6084 23.375 20.6084C20.6026 20.6084 18.2566 19.6394 16.3086 17.6914C14.3606 15.7434 13.3916 13.3974 13.3916 10.625C13.3916 10.1779 13.425 9.73017 13.4922 9.28223C13.5606 8.82625 13.6524 8.36996 13.7666 7.91309L14.0059 6.9541L13.0918 7.3291Z" stroke="#515151"/>
</svg>
