<svg width="29" height="30" viewBox="0 0 29 30" fill="none" xmlns="http://www.w3.org/2000/svg">
<path d="M20.9166 8.125H20.9283M8.66659 2.5H20.3333C23.5549 2.5 26.1666 5.29822 26.1666 8.75V21.25C26.1666 24.7018 23.5549 27.5 20.3333 27.5H8.66659C5.44492 27.5 2.83325 24.7018 2.83325 21.25V8.75C2.83325 5.29822 5.44492 2.5 8.66659 2.5ZM19.1666 14.2125C19.3106 15.2528 19.1447 16.3153 18.6926 17.2488C18.2406 18.1823 17.5253 18.9393 16.6485 19.4121C15.7717 19.8849 14.7781 20.0495 13.809 19.8824C12.8399 19.7153 11.9446 19.2251 11.2506 18.4815C10.5565 17.7378 10.0989 16.7786 9.943 15.7403C9.78706 14.7019 9.94066 13.6374 10.382 12.698C10.8233 11.7586 11.5298 10.9922 12.4011 10.5078C13.2723 10.0234 14.264 9.84574 15.2349 10C16.2253 10.1574 17.1422 10.6518 17.8502 11.4104C18.5582 12.1689 19.0197 13.1513 19.1666 14.2125Z" stroke="#1E1E1E" stroke-linecap="round" stroke-linejoin="round"/>
</svg>
