<svg width="29" height="31" viewBox="0 0 29 31" fill="none" xmlns="http://www.w3.org/2000/svg">
<path d="M20.9166 8.625H20.9283M8.66665 3H20.3333C23.555 3 26.1666 5.79822 26.1666 9.25V21.75C26.1666 25.2018 23.555 28 20.3333 28H8.66665C5.44499 28 2.83331 25.2018 2.83331 21.75V9.25C2.83331 5.79822 5.44499 3 8.66665 3ZM19.1666 14.7125C19.3106 15.7528 19.1448 16.8153 18.6927 17.7488C18.2406 18.6823 17.5253 19.4393 16.6485 19.9121C15.7718 20.3849 14.7782 20.5495 13.8091 20.3824C12.84 20.2153 11.9447 19.7251 11.2506 18.9815C10.5565 18.2378 10.099 17.2786 9.94306 16.2403C9.78712 15.2019 9.94072 14.1374 10.382 13.198C10.8233 12.2586 11.5299 11.4922 12.4011 11.0078C13.2724 10.5234 14.264 10.3457 15.235 10.5C16.2254 10.6574 17.1423 11.1518 17.8503 11.9104C18.5583 12.6689 19.0198 13.6513 19.1666 14.7125Z" stroke="#1E1E1E" stroke-linecap="round" stroke-linejoin="round"/>
</svg>
