<svg width="171" height="41" viewBox="0 0 171 41" fill="none" xmlns="http://www.w3.org/2000/svg">
<path opacity="0.1" fill-rule="evenodd" clip-rule="evenodd" d="M150.209 40C161.255 40 170.209 31.0457 170.209 20C170.209 8.95431 161.255 0 150.209 0C139.163 0 130.209 8.95431 130.209 20C130.209 31.0457 139.163 40 150.209 40Z" stroke="#0A142F" stroke-width="1.5"/>
<path d="M156.746 16.3028C156.653 16.1979 156.504 16.1715 156.381 16.2362C156.304 16.2764 156.161 16.3292 155.991 16.3813C156.206 16.0873 156.378 15.7582 156.455 15.4623C156.488 15.3348 156.439 15.2004 156.334 15.1244C156.229 15.049 156.089 15.049 155.984 15.1244C155.819 15.2431 155.02 15.5999 154.515 15.7155C153.374 14.6872 152.046 14.5805 150.665 15.4096C149.542 16.0836 149.298 17.4541 149.346 18.2895C146.777 18.0351 145.18 16.6394 144.281 15.4843C144.218 15.4033 144.117 15.3606 144.021 15.3669C143.921 15.3744 143.831 15.4316 143.78 15.5201C143.354 16.2582 143.237 17.0741 143.44 17.88C143.551 18.3197 143.745 18.7072 143.971 19.0213C143.863 18.9666 143.758 18.8982 143.66 18.8165C143.569 18.7399 143.443 18.7254 143.336 18.7763C143.23 18.8285 143.162 18.939 143.162 19.0602C143.162 20.444 144.004 21.3673 144.79 21.8497C144.663 21.834 144.53 21.8051 144.396 21.763C144.281 21.7272 144.157 21.763 144.078 21.856C143.998 21.9483 143.979 22.0802 144.029 22.1927C144.47 23.1971 145.307 23.888 146.342 24.1386C145.438 24.6844 144.228 24.952 143.121 24.8208C142.977 24.8 142.84 24.8936 142.795 25.0356C142.75 25.1775 142.809 25.3333 142.936 25.4062C144.616 26.3766 146.135 26.7233 147.448 26.7233C149.359 26.7233 150.834 25.9897 151.732 25.376C154.152 23.724 155.66 20.758 155.45 18.1042C155.838 17.8096 156.418 17.2657 156.778 16.6809C156.852 16.5628 156.839 16.407 156.746 16.3028Z" fill="#0A142F"/>
<path opacity="0.1" fill-rule="evenodd" clip-rule="evenodd" d="M87.891 40.6204C100.476 40.6204 110.677 31.5272 110.677 20.3102C110.677 9.09319 100.476 0 87.891 0C75.3063 0 65.1045 9.09319 65.1045 20.3102C65.1045 31.5272 75.3063 40.6204 87.891 40.6204Z" stroke="#0A142F" stroke-width="1.5"/>
<path d="M89.9658 15.1119H92.06C92.2527 15.1119 92.409 14.9806 92.409 14.8187V13.0598C92.409 12.8979 92.2527 12.7666 92.06 12.7666H89.9658C87.8492 12.7666 86.1263 14.2131 86.1263 15.9914V18.0435H83.683C83.4904 18.0435 83.334 18.1748 83.334 18.3367V20.0956C83.334 20.2575 83.4904 20.3888 83.683 20.3888H86.1263V26.5452C86.1263 26.707 86.2827 26.8383 86.4753 26.8383H88.5696C88.7623 26.8383 88.9186 26.707 88.9186 26.5452V20.3888H91.3619C91.512 20.3888 91.6453 20.3079 91.6935 20.1883L92.3916 18.4293C92.4272 18.3402 92.409 18.2417 92.3434 18.1649C92.2771 18.0886 92.1724 18.0435 92.06 18.0435H88.9186V15.9914C88.9186 15.5065 89.3884 15.1119 89.9658 15.1119Z" fill="#0A142F"/>
<path opacity="0.1" fill-rule="evenodd" clip-rule="evenodd" d="M20 40C31.0457 40 40 31.0457 40 20C40 8.95431 31.0457 0 20 0C8.95431 0 0 8.95431 0 20C0 31.0457 8.95431 40 20 40Z" stroke="#0A142F" stroke-width="1.5"/>
<path d="M15.4101 15.9627C16.3465 15.9627 17.1056 15.2037 17.1056 14.2673C17.1056 13.3309 16.3465 12.5718 15.4101 12.5718C14.4737 12.5718 13.7146 13.3309 13.7146 14.2673C13.7146 15.2037 14.4737 15.9627 15.4101 15.9627Z" fill="#0A142F"/>
<path d="M16.823 17.0952H13.9972C13.8412 17.0952 13.7146 17.2218 13.7146 17.3778V25.8552C13.7146 26.0112 13.8412 26.1378 13.9972 26.1378H16.823C16.979 26.1378 17.1056 26.0112 17.1056 25.8552V17.3778C17.1056 17.2218 16.979 17.0952 16.823 17.0952Z" fill="#0A142F"/>
<path d="M25.2439 16.625C24.0361 16.2113 22.5254 16.5747 21.6195 17.2263C21.5884 17.1048 21.4776 17.0144 21.3459 17.0144H18.5201C18.3641 17.0144 18.2375 17.141 18.2375 17.297V25.7744C18.2375 25.9304 18.3641 26.057 18.5201 26.057H21.3459C21.5019 26.057 21.6285 25.9304 21.6285 25.7744V19.682C22.0852 19.2886 22.6735 19.1632 23.155 19.3677C23.6218 19.565 23.8892 20.0465 23.8892 20.688V25.7744C23.8892 25.9304 24.0158 26.057 24.1717 26.057H26.9976C27.1535 26.057 27.2801 25.9304 27.2801 25.7744V20.1188C27.2479 17.7966 26.1555 16.937 25.2439 16.625Z" fill="#0A142F"/>
</svg>
