<svg width="36" height="36" viewBox="0 0 36 36" fill="none" xmlns="http://www.w3.org/2000/svg">
<path d="M32.0449 3.99463C32.309 4.01766 32.4946 4.09937 32.6113 4.23682C32.7125 4.35615 32.8218 4.58706 32.8125 5.03955L32.8008 5.24756L32.7998 5.25537C32.7624 5.7802 32.5708 6.99248 32.3125 8.63623C32.0572 10.2607 31.7428 12.2745 31.4668 14.3687L29.5781 26.7573L29.5752 26.7729L29.5742 26.7876V26.7886C29.5741 26.7899 29.5737 26.793 29.5732 26.7974C29.5722 26.8063 29.5702 26.8213 29.5674 26.8413C29.5617 26.8818 29.5519 26.943 29.5361 27.0181C29.5042 27.1698 29.4491 27.3718 29.3584 27.5786C29.1967 27.9471 28.9496 28.2736 28.5635 28.4224L28.3896 28.4751C27.8563 28.5939 27.1048 28.3861 26.3594 28.0366C25.6382 27.6986 25.0421 27.2861 24.876 27.1528L24.8643 27.1431L24.4902 26.8911C24.2972 26.7637 24.0433 26.5971 23.752 26.4058C23.1537 26.0128 22.3657 25.4945 21.5273 24.9292C20.0508 23.9335 18.4419 22.8106 17.4229 21.981L17.0244 21.644L17.0195 21.6401L16.8516 21.478C16.6955 21.3074 16.5793 21.1133 16.5479 20.9155C16.5131 20.6962 16.5634 20.3436 17.1025 19.8706L17.1104 19.8628L17.1182 19.856L25.3809 11.9653L25.3896 11.9565C25.6592 11.6862 25.925 11.3312 26.1084 10.9888C26.1999 10.8179 26.2797 10.6338 26.3252 10.4526C26.3674 10.2847 26.3992 10.046 26.3047 9.81592C26.1899 9.53654 25.9432 9.38845 25.6777 9.35498C25.4456 9.32582 25.1913 9.37904 24.9385 9.46631C24.4879 9.62187 23.8777 9.94458 23.0674 10.4761L22.708 10.7173L11.7109 18.1997C11.7106 18.1999 11.7099 18.2002 11.709 18.2007C11.7052 18.2029 11.6967 18.2086 11.6836 18.2153C11.6575 18.2288 11.6129 18.2497 11.5508 18.2749C11.4257 18.3257 11.2278 18.3923 10.96 18.4399C10.4269 18.5348 9.60103 18.5584 8.49609 18.2261H8.49512L3.46191 16.6733C3.43135 16.6497 3.39068 16.6157 3.34961 16.5737C3.25503 16.477 3.20083 16.3841 3.18945 16.311C3.18365 16.2736 3.1733 16.1675 3.3584 15.9819C3.56091 15.7789 3.97026 15.514 4.74707 15.229L4.76758 15.2222L4.78809 15.2124C12.6401 11.5121 22.2932 7.73469 30.8828 4.1792C30.8833 4.179 30.8846 4.17866 30.8857 4.17822C30.889 4.17699 30.8947 4.17513 30.9023 4.17236C30.9185 4.16655 30.9444 4.15771 30.9775 4.14697C31.044 4.12544 31.1399 4.09592 31.2549 4.06885C31.4913 4.01319 31.78 3.97157 32.0449 3.99463Z" stroke="black"/>
</svg>
