<svg width="512" height="512" viewBox="0 0 512 512" fill="none" xmlns="http://www.w3.org/2000/svg">
<g clip-path="url(#clip0_53_33)">
<path d="M80 36H192C207.491 36 220 48.5091 220 64C220 79.4909 207.491 92 192 92H80C68.9909 92 60 100.991 60 112V432C60 443.009 68.9909 452 80 452H400C411.009 452 420 443.009 420 432V320C420 304.509 432.509 292 448 292C463.491 292 476 304.509 476 320V432C476 473.991 441.991 508 400 508H80C38.0091 508 4 473.991 4 432V112C4 70.0091 38.0091 36 80 36ZM352 4H480.1C495.59 4 508.1 16.5091 508.1 32V160C508.1 171.371 501.284 181.523 490.762 185.907C480.283 190.273 468.343 187.936 460.291 179.933L402.982 115.834L399.825 112.304L396.873 116.006L243.729 308.009C232.781 318.807 215.12 318.763 204.229 307.872C193.462 297.105 193.293 279.72 203.724 268.746L204.229 268.229L204.229 268.228L373.529 98.8271L376.359 95.9961L373.525 93.168L332.142 51.8848C324.158 43.8113 321.725 31.8229 326.093 21.3389C330.474 10.8228 340.722 4 352 4Z" stroke="black" stroke-width="8"/>
</g>
<defs>
<clipPath id="clip0_53_33">
<rect width="512" height="512" fill="white"/>
</clipPath>
</defs>
</svg>
