<svg width="30" height="32" viewBox="0 0 30 32" fill="none" xmlns="http://www.w3.org/2000/svg">
<path d="M27.736 8.55998C27.5924 7.92719 27.3001 7.34741 26.8885 6.87919C26.4769 6.41097 25.9606 6.07089 25.3918 5.89331C23.3135 5.33331 15.0001 5.33331 15.0001 5.33331C15.0001 5.33331 6.68679 5.33331 4.60845 5.94665C4.03963 6.12423 3.52334 6.4643 3.11175 6.93252C2.70015 7.40074 2.40782 7.98053 2.26429 8.61331C1.88392 10.9407 1.69786 13.3017 1.70845 15.6666C1.6949 18.0494 1.88097 20.4284 2.26429 22.7733C2.42253 23.3864 2.72141 23.9442 3.13205 24.3926C3.54268 24.8411 4.0512 25.1651 4.60845 25.3333C6.68679 25.9466 15.0001 25.9466 15.0001 25.9466C15.0001 25.9466 23.3135 25.9466 25.3918 25.3333C25.9606 25.1557 26.4769 24.8157 26.8885 24.3474C27.3001 23.8792 27.5924 23.2994 27.736 22.6666C28.1134 20.3568 28.2994 18.0138 28.2918 15.6666C28.3053 13.2839 28.1193 10.9049 27.736 8.55998Z" stroke="#1E1E1E" stroke-linecap="round" stroke-linejoin="round"/>
<path d="M12.2814 20.0266L19.2293 15.6666L12.2814 11.3066V20.0266Z" stroke="#1E1E1E" stroke-linecap="round" stroke-linejoin="round"/>
</svg>
